arm26_ForwardRun_states
version=1
nRows=41
nColumns=17
inDegrees=yes

# SIMM Motion File Header:
name arm26_ForwardRun_states
datacolumns 17
datarows 41
otherdata 1
range 0.20799546 0.23302947
endheader
time	r_shoulder/r_shoulder_elev/r_shoulder_elev	r_shoulder/r_shoulder_elev/r_shoulder_elev_u	r_elbow/r_elbow_flex/r_elbow_flex	r_elbow/r_elbow_flex/r_elbow_flex_u	TRIlong/activation	TRIlong/fiber_length	TRIlat/activation	TRIlat/fiber_length	TRImed/activation	TRImed/fiber_length	BIClong/activation	BIClong/fiber_length	BICshort/activation	BICshort/fiber_length	BRA/activation	BRA/fiber_length
      0.20799546	     -8.72097800	     -0.37642419	     57.32196848	     -5.64180367	      0.01425735	      0.15119951	      0.01425735	      0.09166650	      0.01425735	      0.08650682	      0.01425735	      0.12398791	      0.01425735	      0.12469048	      0.01425735	      0.07981761
      0.20854898	     -8.73278023	     -0.36784883	     57.14269765	     -5.66343075	      0.01423285	      0.15112798	      0.01423285	      0.09159985	      0.01423285	      0.08644008	      0.01423285	      0.12410884	      0.01423285	      0.12482228	      0.01423285	      0.07986949
      0.20930159	     -8.74838974	     -0.35610100	     56.89784793	     -5.69295451	      0.01419976	      0.15103048	      0.01419976	      0.09150869	      0.01419976	      0.08634880	      0.01419976	      0.12427396	      0.01419976	      0.12498857	      0.01419976	      0.07993514
      0.20984973	     -8.75943880	     -0.34752958	     56.71871816	     -5.71437965	      0.01417583	      0.15095929	      0.01417583	      0.09144190	      0.01417583	      0.08628192	      0.01417583	      0.12439364	      0.01417583	      0.12512752	      0.01417583	      0.07999017
      0.21039787	     -8.77021774	     -0.33888707	     56.53891410	     -5.73593571	      0.01415204	      0.15088795	      0.01415204	      0.09137477	      0.01415204	      0.08621471	      0.01415204	      0.12451420	      0.01415204	      0.12524569	      0.01415204	      0.08003615
      0.21094601	     -8.78072497	     -0.33023273	     56.35843378	     -5.75742508	      0.01412838	      0.15081646	      0.01412838	      0.09130731	      0.01412838	      0.08614717	      0.01412838	      0.12463437	      0.01412838	      0.12537710	      0.01412838	      0.08008766
      0.21169585	     -8.79465721	     -0.31830919	     56.11044627	     -5.78693470	      0.01409624	      0.15071842	      0.01409624	      0.09121448	      0.01409624	      0.08605423	      0.01409624	      0.12479984	      0.01409624	      0.12554335	      0.01409624	      0.08015327
      0.21224190	     -8.80447989	     -0.30961357	     55.92905823	     -5.80834262	      0.01407299	      0.15064685	      0.01407299	      0.09114649	      0.01407299	      0.08598615	      0.01407299	      0.12491908	      0.01407299	      0.12568331	      0.01407299	      0.08020835
      0.21278795	     -8.81402962	     -0.30084844	     55.74699904	     -5.82987970	      0.01404988	      0.15057513	      0.01404988	      0.09107816	      0.01404988	      0.08591774	      0.01404988	      0.12504000	      0.01404988	      0.12580092	      0.01404988	      0.08025413
      0.21333400	     -8.82330489	     -0.29207424	     55.56426683	     -5.85134504	      0.01402690	      0.15050326	      0.01402690	      0.09100950	      0.01402690	      0.08584899	      0.01402690	      0.12515984	      0.01402690	      0.12593286	      0.01402690	      0.08030562
      0.21407894	     -8.83551451	     -0.28002292	     55.31389705	     -5.88073709	      0.01399576	      0.15040497	      0.01399576	      0.09091528	      0.01399576	      0.08575467	      0.01399576	      0.12532579	      0.01399576	      0.12609830	      0.01399576	      0.08037084
      0.21462920	     -8.84420239	     -0.27111092	     55.12815023	     -5.90236136	      0.01397292	      0.15033219	      0.01397292	      0.09084529	      0.01397292	      0.08568459	      0.01397292	      0.12544486	      0.01397292	      0.12624120	      0.01397292	      0.08042704
      0.21517946	     -8.85260840	     -0.26212856	     54.94172024	     -5.92411811	      0.01395021	      0.15025926	      0.01395021	      0.09077495	      0.01395021	      0.08561417	      0.01395021	      0.12556847	      0.01395021	      0.12635899	      0.01395021	      0.08047261
      0.21572972	     -8.86073103	     -0.25314094	     54.75460528	     -5.94579310	      0.01392763	      0.15018618	      0.01392763	      0.09070427	      0.01392763	      0.08554341	      0.01392763	      0.12568830	      0.01392763	      0.12649344	      0.01392763	      0.08052484
      0.21647759	     -8.87131542	     -0.24084474	     54.49919467	     -5.97536104	      0.01389714	      0.15008661	      0.01389714	      0.09060765	      0.01389714	      0.08544668	      0.01389714	      0.12586031	      0.01389714	      0.12665924	      0.01389714	      0.08058995
      0.21705939	     -8.87918408	     -0.23126954	     54.29962771	     -5.99827210	      0.01387360	      0.15000896	      0.01387360	      0.09053205	      0.01387360	      0.08537099	      0.01387360	      0.12598018	      0.01387360	      0.12681497	      0.01387360	      0.08065389
      0.21764118	     -8.88673226	     -0.22160645	     54.09929461	     -6.02135969	      0.01385020	      0.14993113	      0.01385020	      0.09045606	      0.01385020	      0.08529492	      0.01385020	      0.12611751	      0.01385020	      0.12693531	      0.01385020	      0.08069767
      0.21822297	     -8.89395846	     -0.21195042	     53.89819406	     -6.04432218	      0.01382694	      0.14985314	      0.01382694	      0.09037969	      0.01382694	      0.08521846	      0.01382694	      0.12623800	      0.01382694	      0.12708200	      0.01382694	      0.08075410
      0.21886673	     -8.90157839	     -0.20120967	     53.67478136	     -6.06978730	      0.01380136	      0.14976664	      0.01380136	      0.09029473	      0.01380136	      0.08513341	      0.01380136	      0.12639448	      0.01380136	      0.12722224	      0.01380136	      0.08080925
      0.21951049	     -8.90880140	     -0.19044533	     53.45042925	     -6.09521035	      0.01377597	      0.14967994	      0.01377597	      0.09020929	      0.01377597	      0.08504788	      0.01377597	      0.12652290	      0.01377597	      0.12739546	      0.01377597	      0.08088059
      0.22015426	     -8.91562567	     -0.17958582	     53.22513630	     -6.12080731	      0.01375074	      0.14959302	      0.01375074	      0.09012337	      0.01375074	      0.08496187	      0.01375074	      0.12668367	      0.01375074	      0.12752578	      0.01375074	      0.08092710
      0.22079802	     -8.92204956	     -0.16873720	     52.99890196	     -6.14625599	      0.01372568	      0.14950590	      0.01372568	      0.09003698	      0.01372568	      0.08487539	      0.01372568	      0.12680929	      0.01372568	      0.12769841	      0.01372568	      0.08099853
      0.22144178	     -8.92807172	     -0.15780080	     52.77172620	     -6.17185465	      0.01370079	      0.14941857	      0.01370079	      0.08995011	      0.01370079	      0.08478843	      0.01370079	      0.12696968	      0.01370079	      0.12782959	      0.01370079	      0.08104492
      0.22208554	     -8.93369071	     -0.14687636	     52.54360908	     -6.19730457	      0.01367607	      0.14933104	      0.01367607	      0.08986276	      0.01367607	      0.08470099	      0.01367607	      0.12709575	      0.01367607	      0.12800268	      0.01367607	      0.08111640
      0.22272930	     -8.93890517	     -0.13586663	     52.31455045	     -6.22289844	      0.01365152	      0.14924329	      0.01365152	      0.08977493	      0.01365152	      0.08461307	      0.01365152	      0.12725646	      0.01365152	      0.12813385	      0.01365152	      0.08116268
      0.22337306	     -8.94371379	     -0.12486911	     52.08455072	     -6.24834606	      0.01362713	      0.14915534	      0.01362713	      0.08968661	      0.01362713	      0.08452466	      0.01362713	      0.12738250	      0.01362713	      0.12830741	      0.01362713	      0.08123414
      0.22401682	     -8.94811523	     -0.11378946	     51.85360963	     -6.27392932	      0.01360291	      0.14906718	      0.01360291	      0.08959781	      0.01360291	      0.08443578	      0.01360291	      0.12754316	      0.01360291	      0.12843850	      0.01360291	      0.08128035
      0.22466058	     -8.95210829	     -0.10272267	     51.62172793	     -6.29936743	      0.01357885	      0.14897881	      0.01357885	      0.08950854	      0.01357885	      0.08434641	      0.01357885	      0.12766947	      0.01357885	      0.12861250	      0.01357885	      0.08135174
      0.22530434	     -8.95569163	     -0.09157668	     51.38890524	     -6.32493381	      0.01355496	      0.14889023	      0.01355496	      0.08941877	      0.01355496	      0.08425656	      0.01355496	      0.12782976	      0.01355496	      0.12874351	      0.01355496	      0.08139790
      0.22594810	     -8.95886421	     -0.08044444	     51.15514268	     -6.35035518	      0.01353122	      0.14880145	      0.01353122	      0.08932852	      0.01353122	      0.08416623	      0.01353122	      0.12795659	      0.01353122	      0.12891789	      0.01353122	      0.08146915
      0.22659186	     -8.96162467	     -0.06923574	     50.92043978	     -6.37589837	      0.01350764	      0.14871246	      0.01350764	      0.08923779	      0.01350764	      0.08407541	      0.01350764	      0.12811613	      0.01350764	      0.12904881	      0.01350764	      0.08151530
      0.22723562	     -8.96397212	     -0.05804209	     50.68479801	     -6.40129517	      0.01348423	      0.14862326	      0.01348423	      0.08914657	      0.01348423	      0.08398410	      0.01348423	      0.12824382	      0.01348423	      0.12922352	      0.01348423	      0.08158635
      0.22787939	     -8.96590520	     -0.04677440	     50.44821681	     -6.42680868	      0.01346097	      0.14853385	      0.01346097	      0.08905487	      0.01346097	      0.08389231	      0.01346097	      0.12840221	      0.01346097	      0.12935435	      0.01346097	      0.08163251
      0.22852315	     -8.96742315	     -0.03552358	     50.21069799	     -6.45217253	      0.01343787	      0.14844424	      0.01343787	      0.08896268	      0.01343787	      0.08380004	      0.01343787	      0.12853107	      0.01343787	      0.12952934	      0.01343787	      0.08170330
      0.22916691	     -8.96852465	     -0.02420082	     49.97224094	     -6.47764926	      0.01341492	      0.14835442	      0.01341492	      0.08887000	      0.01341492	      0.08370728	      0.01341492	      0.12868806	      0.01341492	      0.12966007	      0.01341492	      0.08174951
      0.22981067	     -8.96920904	     -0.01289714	     49.73284779	     -6.50297163	      0.01339213	      0.14826440	      0.01339213	      0.08877684	      0.01339213	      0.08361403	      0.01339213	      0.12881824	      0.01339213	      0.12983530	      0.01339213	      0.08181997
      0.23045443	     -8.96947505	     -0.00152355	     49.49251793	     -6.52840345	      0.01336949	      0.14817416	      0.01336949	      0.08868319	      0.01336949	      0.08352030	      0.01336949	      0.12897388	      0.01336949	      0.12996592	      0.01336949	      0.08186625
      0.23109819	     -8.96932213	      0.00982887	     49.25125377	     -6.55367669	      0.01334701	      0.14808373	      0.01334701	      0.08858905	      0.01334701	      0.08342607	      0.01334701	      0.12910527	      0.01334701	      0.13014134	      0.01334701	      0.08193632
      0.23174195	     -8.96874906	      0.02124890	     49.00905473	     -6.57905510	      0.01332467	      0.14799308	      0.01332467	      0.08849442	      0.01332467	      0.08333136	      0.01332467	      0.12925967	      0.01332467	      0.13027183	      0.01332467	      0.08198271
      0.23238571	     -8.96775539	      0.03264592	     48.76592346	     -6.60427160	      0.01330249	      0.14790223	      0.01330249	      0.08839930	      0.01330249	      0.08323617	      0.01330249	      0.12939212	      0.01330249	      0.13044740	      0.01330249	      0.08205232
      0.23302947	     -8.96633997	      0.04410789	     48.52185946	     -6.62958785	      0.01328045	      0.14781118	      0.01328045	      0.08830370	      0.01328045	      0.08314048	      0.01328045	      0.12954539	      0.01328045	      0.13057776	      0.01328045	      0.08209885
